REM DIRINDEX 1\6,1\2\7,1\2\8,1\2\9,1\3\10,1\3\11,1\4\12,1\4\13,1\4\14,1\5\15,1\5\16,1\5\17
REM DIRNAME folder01,folder02,folder03,folder04,folder05,folder06,folder07,folder08,folder09,folder10,folder11,folder12,folder13,folder14,folder15,folder16,folder17
TITLE ""
FILE "3Q_t2_0032-0047.mp3" MP3
  TRACK 01 AUDIO
    TITLE "7:cjc041_3507"
    INDEX 01 00:00:00
  TRACK 02 AUDIO
    TITLE "0:"
    INDEX 01 00:00:72
  TRACK 03 AUDIO
    TITLE "8:cjc041_3508"
    INDEX 01 00:01:58
  TRACK 04 AUDIO
    TITLE "0:"
    INDEX 01 00:03:35
  TRACK 05 AUDIO
    TITLE "9:cjc041_3509"
    INDEX 01 00:04:17
  TRACK 06 AUDIO
    TITLE "0:"
    INDEX 01 00:05:28
  TRACK 07 AUDIO
    TITLE "7:cjc041_3510"
    INDEX 01 00:07:07
  TRACK 08 AUDIO
    TITLE "0:"
    INDEX 01 00:08:07
  TRACK 09 AUDIO
    TITLE "8:cjc041_3511"
    INDEX 01 00:08:62
  TRACK 10 AUDIO
    TITLE "0:"
    INDEX 01 00:13:45
  TRACK 11 AUDIO
    TITLE "9:cjc041_3512"
    INDEX 01 00:14:21
  TRACK 12 AUDIO
    TITLE "0:"
    INDEX 01 00:15:17
  TRACK 13 AUDIO
    TITLE "7:cjc041_3513"
    INDEX 01 00:17:06
  TRACK 14 AUDIO
    TITLE "0:"
    INDEX 01 00:18:27
  TRACK 15 AUDIO
    TITLE "8:cjc041_3514"
    INDEX 01 00:19:07
  TRACK 16 AUDIO
    TITLE "0:"
    INDEX 01 00:20:28
  TRACK 17 AUDIO
    TITLE "9:cjc041_3515"
    INDEX 01 00:21:04
  TRACK 18 AUDIO
    TITLE "0:"
    INDEX 01 00:22:27
  TRACK 19 AUDIO
    TITLE "7:cjc041_3516"
    INDEX 01 00:24:10
  TRACK 20 AUDIO
    TITLE "0:"
    INDEX 01 00:25:25
  TRACK 21 AUDIO
    TITLE "8:cjc041_3517"
    INDEX 01 00:26:01
  TRACK 22 AUDIO
    TITLE "0:"
    INDEX 01 00:27:20
  TRACK 23 AUDIO
    TITLE "9:cjc041_3518"
    INDEX 01 00:27:73
  TRACK 24 AUDIO
    TITLE "0:"
    INDEX 01 00:29:15
  TRACK 25 AUDIO
    TITLE "7:cjc041_3519"
    INDEX 01 00:30:69
  TRACK 26 AUDIO
    TITLE "0:"
    INDEX 01 00:32:11
  TRACK 27 AUDIO
    TITLE "8:cjc041_3520"
    INDEX 01 00:32:64
  TRACK 28 AUDIO
    TITLE "0:"
    INDEX 01 00:35:23
  TRACK 29 AUDIO
    TITLE "9:cjc041_3521"
    INDEX 01 00:35:74
  TRACK 30 AUDIO
    TITLE "0:"
    INDEX 01 00:37:18
  TRACK 31 AUDIO
    TITLE "7:cjc041_3522"
    INDEX 01 00:39:09
  TRACK 32 AUDIO
    TITLE "0:"
    INDEX 01 00:40:21
  TRACK 33 AUDIO
    TITLE "8:cjc041_3523"
    INDEX 01 00:41:00
  TRACK 34 AUDIO
    TITLE "0:"
    INDEX 01 00:42:47
  TRACK 35 AUDIO
    TITLE "9:cjc041_3524"
    INDEX 01 00:43:23
  TRACK 36 AUDIO
    TITLE "0:"
    INDEX 01 00:44:44
  TRACK 37 AUDIO
    TITLE "7:cjc041_3525"
    INDEX 01 00:46:25
  TRACK 38 AUDIO
    TITLE "0:"
    INDEX 01 00:47:56
  TRACK 39 AUDIO
    TITLE "8:cjc041_3526"
    INDEX 01 00:48:32
  TRACK 40 AUDIO
    TITLE "0:"
    INDEX 01 00:52:14
  TRACK 41 AUDIO
    TITLE "9:cjc041_3527"
    INDEX 01 00:52:67
  TRACK 42 AUDIO
    TITLE "0:"
    INDEX 01 00:54:15
  TRACK 43 AUDIO
    TITLE "7:cjc041_3528"
    INDEX 01 00:56:04
  TRACK 44 AUDIO
    TITLE "0:"
    INDEX 01 00:57:17
  TRACK 45 AUDIO
    TITLE "8:cjc041_3529"
    INDEX 01 00:57:70
  TRACK 46 AUDIO
    TITLE "0:"
    INDEX 01 00:58:66
  TRACK 47 AUDIO
    TITLE "9:cjc041_3530"
    INDEX 01 00:59:49
  TRACK 48 AUDIO
    TITLE "0:"
    INDEX 01 01:00:66
  TRACK 49 AUDIO
    TITLE "7:cjc041_3531"
    INDEX 01 01:02:54
  TRACK 50 AUDIO
    TITLE "0:"
    INDEX 01 01:04:03
  TRACK 51 AUDIO
    TITLE "8:cjc041_3532"
    INDEX 01 01:04:56
  TRACK 52 AUDIO
    TITLE "0:"
    INDEX 01 01:07:64
  TRACK 53 AUDIO
    TITLE "9:cjc041_3533"
    INDEX 01 01:08:46
  TRACK 54 AUDIO
    TITLE "0:"
    INDEX 01 01:09:71
  TRACK 55 AUDIO
    TITLE "7:cjc041_3534"
    INDEX 01 01:11:51
  TRACK 56 AUDIO
    TITLE "0:"
    INDEX 01 01:13:04
  TRACK 57 AUDIO
    TITLE "8:cjc041_3535"
    INDEX 01 01:13:59
  TRACK 58 AUDIO
    TITLE "0:"
    INDEX 01 01:15:70
  TRACK 59 AUDIO
    TITLE "9:cjc041_3536"
    INDEX 01 01:16:46
  TRACK 60 AUDIO
    TITLE "0:"
    INDEX 01 01:18:00
  TRACK 61 AUDIO
    TITLE "7:cjc041_3537"
    INDEX 01 01:19:62
  TRACK 62 AUDIO
    TITLE "0:"
    INDEX 01 01:21:00
  TRACK 63 AUDIO
    TITLE "8:cjc041_3538"
    INDEX 01 01:21:55
  TRACK 64 AUDIO
    TITLE "0:"
    INDEX 01 01:24:18
  TRACK 65 AUDIO
    TITLE "9:cjc041_3539"
    INDEX 01 01:24:69
  TRACK 66 AUDIO
    TITLE "0:"
    INDEX 01 01:26:07
  TRACK 67 AUDIO
    TITLE "7:cjc041_3540"
    INDEX 01 01:27:65
  TRACK 68 AUDIO
    TITLE "0:"
    INDEX 01 01:28:74
  TRACK 69 AUDIO
    TITLE "8:cjc041_3541"
    INDEX 01 01:29:46
  TRACK 70 AUDIO
    TITLE "0:"
    INDEX 01 01:30:46
  TRACK 71 AUDIO
    TITLE "9:cjc041_3542"
    INDEX 01 01:31:26
  TRACK 72 AUDIO
    TITLE "0:"
    INDEX 01 01:32:43
  TRACK 73 AUDIO
    TITLE "7:cjc041_3543"
    INDEX 01 01:34:26
  TRACK 74 AUDIO
    TITLE "0:"
    INDEX 01 01:35:35
  TRACK 75 AUDIO
    TITLE "8:cjc041_3544"
    INDEX 01 01:36:15
  TRACK 76 AUDIO
    TITLE "0:"
    INDEX 01 01:39:47
  TRACK 77 AUDIO
    TITLE "9:cjc041_3545"
    INDEX 01 01:40:23
  TRACK 78 AUDIO
    TITLE "0:"
    INDEX 01 01:41:34
  TRACK 79 AUDIO
    TITLE "7:cjc041_3546"
    INDEX 01 01:43:11
  TRACK 80 AUDIO
    TITLE "0:"
    INDEX 01 01:44:26
  TRACK 81 AUDIO
    TITLE "8:cjc041_3547"
    INDEX 01 01:45:02
  TRACK 82 AUDIO
    TITLE "0:"
    INDEX 01 01:46:72
  TRACK 83 AUDIO
    TITLE "9:cjc041_3548"
    INDEX 01 01:47:50
  TRACK 84 AUDIO
    TITLE "0:"
    INDEX 01 01:48:63
  TRACK 85 AUDIO
    TITLE "7:cjc041_3549"
    INDEX 01 01:50:39
  TRACK 86 AUDIO
    TITLE "0:"
    INDEX 01 01:51:46
  TRACK 87 AUDIO
    TITLE "8:cjc041_3550"
    INDEX 01 01:52:30
  TRACK 88 AUDIO
    TITLE "0:"
    INDEX 01 01:55:52
  TRACK 89 AUDIO
    TITLE "9:cjc041_3551"
    INDEX 01 01:56:32
  TRACK 90 AUDIO
    TITLE "0:"
    INDEX 01 01:57:39
  TRACK 91 AUDIO
    TITLE "7:cjc041_3552"
    INDEX 01 01:59:28
  TRACK 92 AUDIO
    TITLE "0:"
    INDEX 01 02:00:53
  TRACK 93 AUDIO
    TITLE "8:cjc041_3553"
    INDEX 01 02:01:27
  TRACK 94 AUDIO
    TITLE "0:"
    INDEX 01 02:06:24
  TRACK 95 AUDIO
    TITLE "9:cjc041_3554"
    INDEX 01 02:07:04
  TRACK 96 AUDIO
    TITLE "0:"
    INDEX 01 02:08:29
